#!OML:ASF E:\Style4\Style4.ASF
:FULLY-SPECIFIED
:DEGREES
1056
root 1.61121 16.6046 -1.48356 3.63256 -28.0262 4.98792
lowerback 19.6262 -0.334867 -1.80805
upperback 10.1494 -0.939966 0.0643989
thorax -0.00892954 -0.623386 1.26985
lowerneck 6.41084 -3.58051 -5.58617
upperneck -7.77365 -5.16079 2.55187
head -3.44843 -2.51189 2.08153
rclavicle 7.55382e-014 -2.34566e-014
rhumerus 10.96 3.23428 -78.2296
rradius 123.004
rwrist 25.3637
rhand 17.992 -2.8564
rfingers 7.12502
rthumb 42.6601 -27.2214
lclavicle 7.55382e-014 -2.34566e-014
lhumerus 28.6392 -23.5339 71.643
lradius 116.868
lwrist -11.5007
lhand 10.5992 36.2613
lfingers 7.12502
lthumb 35.6944 62.6523
rfemur -42.7832 16.5373 6.47395
rtibia 55.7521
rfoot -20.5714 -3.57748
rtoes -19.4049
lfemur -34.5742 17.0575 -30.6769
ltibia 56.8194
lfoot -30.9051 14.8318
ltoes -10.6258
1057
root 1.59931 16.6064 -1.48273 3.58754 -27.8846 5.04036
lowerback 19.5721 -0.305403 -1.87894
upperback 10.1927 -0.91158 0.0772243
thorax 0.065991 -0.613275 1.31683
lowerneck 6.44655 -3.60427 -5.63797
upperneck -7.8257 -5.19843 2.57509
head -3.47012 -2.52939 2.10283
rclavicle 9.54166e-015 -3.77691e-014
rhumerus 11.0741 3.23565 -78.1112
rradius 123.057
rwrist 25.3447
rhand 17.8971 -2.97391
rfingers 7.12502
rthumb 42.5713 -27.3696
lclavicle 9.54166e-015 -3.77691e-014
lhumerus 28.667 -23.531 71.6663
lradius 116.845
lwrist -11.5379
lhand 10.5873 36.1269
lfingers 7.12502
lthumb 35.6832 62.5206
rfemur -42.7028 16.4678 6.48425
rtibia 55.7937
rfoot -20.6152 -3.69362
rtoes -19.562
lfemur -34.5225 17.017 -30.6845
ltibia 56.85
lfoot -30.9157 14.8766
ltoes -11.1579
1058
root 1.58543 16.607 -1.48191 3.52213 -27.7292 5.08304
lowerback 19.5335 -0.260121 -1.88308
upperback 10.2664 -0.853347 0.0511251
thorax 0.162803 -0.585395 1.27923
lowerneck 6.39074 -3.65849 -5.55799
upperneck -7.84646 -5.26151 2.56458
head -3.46536 -2.56245 2.08617
rclavicle -2.76311e-014 1.43125e-014
rhumerus 11.1565 3.14143 -78.0334
rradius 123.083
rwrist 25.379
rhand 17.731 -3.01161
rfingers 7.12502
rthumb 42.4158 -27.4608
lclavicle -2.76311e-014 1.43125e-014
lhumerus 28.7578 -23.5995 71.612
lradius 116.818
lwrist -11.5088
lhand 10.5312 36.1338
lfingers 7.12502
lthumb 35.63 62.5404
rfemur -42.5831 16.4026 6.51565
rtibia 55.831
rfoot -20.699 -3.75754
rtoes -19.5816
lfemur -34.4303 16.9757 -30.6649
ltibia 56.8843
lfoot -30.9515 14.9196
ltoes -11.6763
1059
root 1.57178 16.6055 -1.4842 3.54205 -27.558 4.98847
lowerback 19.5524 -0.27486 -1.81288
upperback 10.3114 -0.860482 0.0771549
thorax 0.201493 -0.587769 1.26818
lowerneck 6.2871 -3.66085 -5.61217
upperneck -7.82903 -5.26437 2.5642
head -3.43788 -2.56252 2.09162
rclavicle 4.92986e-014 5.96354e-015
rhumerus 11.254 3.22966 -77.8943
rradius 123.135
rwrist 25.247
rhand 17.7257 -3.15751
rfingers 7.12502
rthumb 42.4108 -27.6084
lclavicle 4.92986e-014 5.96354e-015
lhumerus 28.7999 -23.5565 71.5758
lradius 116.804
lwrist -11.4835
lhand 10.452 36.191
lfingers 7.12502
lthumb 35.5549 62.6156
rfemur -42.5012 16.3209 6.68286
rtibia 55.8715
rfoot -20.7558 -3.78668
rtoes -19.3894
lfemur -34.4065 16.8872 -30.5012
ltibia 56.9386
lfoot -30.9246 14.7218
ltoes -11.207
1060
root 1.55886 16.6035 -1.48671 3.63083 -27.3902 4.86719
lowerback 19.5336 -0.370314 -1.89004
upperback 10.2928 -0.992081 0.207148
thorax 0.199907 -0.659542 1.47384
lowerneck 6.34441 -3.527 -5.99876
upperneck -7.8779 -5.12181 2.61772
head -3.46405 -2.4816 2.17657
rclavicle 1.96797e-014 -1.03368e-014
rhumerus 11.4264 3.68894 -77.7454
rradius 123.124
rwrist 24.9988
rhand 17.77 -3.25585
rfingers 7.12502
rthumb 42.4523 -27.6925
lclavicle 1.96797e-014 -1.03368e-014
lhumerus 28.611 -23.1672 71.6539
lradius 116.821
lwrist -11.539
lhand 10.497 36.0525
lfingers 7.12502
lthumb 35.5976 62.4669
rfemur -42.493 16.2368 6.85606
rtibia 55.9156
rfoot -20.7706 -3.9143
rtoes -19.6131
lfemur -34.4745 16.7947 -30.3359
ltibia 56.9984
lfoot -30.8344 14.5778
ltoes -10.7726
1061
root 1.54455 16.6022 -1.4885 3.61894 -27.2189 4.85702
lowerback 19.5328 -0.396399 -2.00145
upperback 10.2984 -1.04182 0.260813
thorax 0.21227 -0.690114 1.60284
lowerneck 6.4331 -3.4804 -6.19661
upperneck -7.9679 -5.08061 2.67135
head -3.50984 -2.45606 2.23429
rclavicle -3.67752e-014 3.97569e-015
rhumerus 11.481 4.01869 -77.6799
rradius 123.101
rwrist 25.2342
rhand 17.3686 -3.4199
rfingers 7.12502
rthumb 42.0763 -27.9843
lclavicle -3.67752e-014 3.97569e-015
lhumerus 28.5444 -22.9433 71.6362
lradius 116.838
lwrist -11.6816
lhand 10.7025 35.9278
lfingers 7.12502
lthumb 35.7924 62.2951
rfemur -42.4298 16.1717 6.92792
rtibia 55.9763
rfoot -20.8046 -4.01288
rtoes -19.7831
lfemur -34.4611 16.7048 -30.2628
ltibia 57.0339
lfoot -30.8075 14.6451
ltoes -11.3084
